<svg xmlns="http://www.w3.org/2000/svg" viewBox="0 0 160 64"><path d="M26.36 46.12c-2.31 3.84-5.34 7.51-9.31 7.51s-5.11-2.5-9.7-2.5-5.88 2.5-9.7 2.5-7.29-4.04-9.83-7.7C-17.27 38.43-21.05 24.7-15.77 15.63c2.61-4.57 7.39-7.46 12.56-7.46 4 0 7.77 2.77 10.27 2.77s6.76-3.41 11.53-2.93c1.99.11 7.58.7 11.16 5.92-8.4 4.94-7.04 15.32-2.14 18.17 4.9 2.85 1.61 8.1 6.13 10.54zM20.21 13.11c1.56-1.91 2.63-4.56 2.33-7.16-2.27.09-5.07 1.51-6.7 3.41-1.46 1.71-2.73 4.38-2.45 6.96 2.6.2 5.09-1.3 6.82-3.21z"/><path d="M68.51 12.01h11.11v40.32h-10v-5.22h-.1c-1.92 3.53-5.91 5.84-10.28 5.84-8.15 0-14.73-6.52-14.73-14.73s6.58-14.73 14.73-14.73c4.14 0 8.12 2.12 10.08 5.33h.1v-11.81zm-15.44 26.24c0 4.52 3.31 7.9 7.9 7.9s7.9-3.38 7.9-7.9-3.31-7.9-7.9-7.9-7.9 3.38-7.9 7.9zM102.26 53.59c-.1.1-2.92 8.28-12.7 8.28-4.14 0-7.74-1.35-10.01-3.79l5.84-5.69c1.28 1.15 2.71 1.76 4.33 1.76 3.79 0 5.01-2.3 5.28-3.99l.34-1.08-12.6-35.43h10.84l7.18 22.14 6.84-22.14h10.77l-15.72 40z"/></svg>
