<svg xmlns="http://www.w3.org/2000/svg" viewBox="0 0 120 40"><path fill="#4285F4" d="M17.4 19.3c0-1.1-.1-2.1-.3-3.2H8.9v6h4.8c-.2 1.1-.9 2.1-1.8 2.7l2.8 2.2c1.7-1.5 2.7-3.8 2.7-6.5z"/><path fill="#34A853" d="M8.9 28c2.4 0 4.5-.8 5.9-2.2l-2.8-2.2c-.8.6-1.9.9-3.1.9-2.4 0-4.4-1.6-5.1-3.8L1 23c1.5 3 4.6 5 7.9 5z"/><path fill="#FBBC05" d="M3.8 20.7c-.2-.6-.3-1.2-.3-1.9s.1-1.3.3-1.9L1 14.6c-.7 1.3-1 2.8-1 4.2s.3 2.9 1 4.2l2.8-2.3z"/><path fill="#EA4335" d="M8.9 13.1c1.3 0 2.5.5 3.4 1.3l2.6-2.6c-1.6-1.5-3.8-2.4-6-2.4-3.3 0-6.4 2-7.9 5L3.8 17c.7-2.3 2.7-3.9 5.1-3.9z"/><path fill="#5F6368" d="M30.4 12h11.1v40.3h-10v-5.2h-.1c-1.9 3.5-5.9 5.8-10.3 5.8-8.2 0-14.7-6.5-14.7-14.7s6.5-14.7 14.7-14.7c4.1 0 8.1 2.1 10.1 5.3h.1V12zm-15.4 26.3c0 4.5 3.3 7.9 7.9 7.9 4.6 0 7.9-3.4 7.9-7.9s-3.3-7.9-7.9-7.9-7.9 3.4-7.9 7.9zM64.3 53.6c-.1.1-2.9 8.3-12.7 8.3-4.1 0-7.7-1.4-10-3.8l5.8-5.7c1.3 1.2 2.7 1.8 4.3 1.8 3.8 0 5-2.3 5.3-4l.3-1.1-12.6-35.4h10.8l7.2 22.1 6.8-22.1h10.8l-15.7 40z"/></svg>
