<svg xmlns="http://www.w3.org/2000/svg" viewBox="0 0 1024 256"><path fill="#003087" d="M127 20.5C173 20.5 203 42.5 201 89.5C198 157.5 132 195.5 67 195.5H37L50 112.5L62 40.5H61L61.3 20.5H127ZM127 51.5H98L94 76.5L87 122.5L85 134.5H109C150 134.5 181 113.5 183 80.5C184 58.5 173 51.5 153 51.5H127Z"/><path fill="#0079C1" d="M192.5 20.5C238.5 20.5 268.5 42.5 266.5 89.5C263.5 157.5 197.5 195.5 132.5 195.5H102.5L115.5 112.5L127.5 40.5H126.5L126.8 20.5H192.5ZM192.5 51.5H163.5L159.5 76.5L152.5 122.5L150.5 134.5H174.5C215.5 134.5 246.5 113.5 248.5 80.5C249.5 58.5 238.5 51.5 218.5 51.5H192.5Z"/><path fill="#003087" d="M386 83.5H417L413 106.5C420 90.5 435 80.5 454 80.5C489 80.5 508 104.5 505 138.5C495 234.5 441 261.5 395 261.5C378 261.5 367 256.5 360 250.5L350 313.5H302L331 130.5L323 174.5L386 83.5ZM424 180.5C455 180.5 481 156.5 485 130.5C488 104.5 479 89.5 459 89.5C446 89.5 433 98.5 428 112.5L421 156.5C425 162.5 434 166.5 442 166.5L443 166.5H424Z"/><path fill="#003087" d="M540 83.5H582L577 112.5C589 93.5 610 80.5 636 80.5C681 80.5 702 110.5 697 143.5C683 230.5 636 261.5 590 261.5C568 261.5 553 254.5 545 245.5L538 290.5H492L529 59.5L528 83.5H540ZM588 228.5C630 228.5 663 197.5 668 164.5C673 137.5 662 119.5 637 119.5C617 119.5 599 132.5 591 152.5L586 183.5C590 195.5 605 201.5 617 201.5L618 201.5H588Z"/><path fill="#0079C1" d="M796 83.5H837L833 105.5C843 91.5 860 82.5 880 82.5C913 82.5 922 103.5 920 120.5L910 182.5H869L878 127.5C880 112.5 875 106.5 864 106.5C852 106.5 842 116.5 838 131.5L830 182.5H789L799 126.5L798 122.5L797 94.5L796 83.5Z"/><path fill="#0079C1" d="M973 20.5L947 185.5H991L1017 20.5H973Z"/></svg>
