<svg xmlns="http://www.w3.org/2000/svg" viewBox="0 0 100 32"><path fill="#1A1F71" d="M39.5 2.1l-6.3 15.5h-4.1L26.1 4.9c-.2-.8-.4-1.1-.9-1.4C24 2.8 22.3 2.3 20.8 2l.1-.4h6.7c.9 0 1.7.6 1.9 1.5l1.6 8.7 4.1-10.2h4.3zm16.5 10.1c0-4 5.6-4.2 5.5-6-.1-.5-.5-1.1-1.7-1.3-1.6-.2-2.7.3-3.6.8l-.7-3.2c1.1-.5 2.6-1 4.3-1 4 0 6.9 2.1 6.9 5.3 0 4.2-5.7 4.4-5.6 6.3 0 .6.7.9 1.6.9 1.1 0 2.2-.4 3.1-.9l.7 3.3c-.9.4-2.1.8-3.7.8-4.2 0-6.9-2.1-7-5.4zm24.7 5.4h-3.3l-1.9-8.7h-3.4c-.9 0-1.7.5-1.9 1.4l-6.1 14.5h4.2l.8-2.3h5.1l.5 2.3h3.4l-2.4-11.2zm-4.4-5.4l1.2-5.7.8 5.7h-2zm-58-10.1l-3.3 15.5h-4.2L30.9 2.1h4.2z"/></svg>
