<svg width="668" height="237" viewBox="0 0 668 237" fill="none" xmlns="http://www.w3.org/2000/svg">
<path d="M118.204 0C183.486 0 236.408 52.9221 236.408 118.204C236.408 183.486 183.486 236.408 118.204 236.408C52.9216 236.408 0.000184007 183.486 0 118.204C0 52.9222 52.9215 0.000159576 118.204 0ZM74.1011 62.1963C57.6799 62.1963 47.268 79.9117 55.5308 94.2344L109.964 188.582C113.619 194.922 122.781 194.922 126.436 188.582L180.88 94.2344C189.132 79.934 178.72 62.1963 162.31 62.1963H74.1011ZM162.288 78.8409C166.031 78.8409 168.234 82.8118 166.45 85.9072L137.856 137.091L137.851 137.098L126.506 159.046V78.8409H162.288ZM109.872 78.8514V159.024L98.5376 137.087L98.5334 137.08L69.9294 85.9212L69.8468 85.7722C68.2134 82.6994 70.405 78.8514 74.0899 78.8514H109.872Z" fill="white"/>
<path d="M639.524 146.749V62.9126H668V188.847H636.565L573.696 99.0739V188.847H545.034V62.9126H581.277L639.524 146.749Z" fill="white"/>
<path d="M456.407 191.685C414.432 191.685 384.107 163.08 384.107 126.739C384.107 90.3977 414.432 61.7925 456.407 61.7925C498.382 61.7925 528.707 90.5777 528.707 126.739C528.707 162.9 498.382 191.685 456.407 191.685ZM456.407 167.218C481 167.218 497.272 149.407 497.272 126.739C497.272 104.071 481 86.2599 456.407 86.2599C431.814 86.2599 415.542 104.071 415.542 126.739C415.542 149.407 431.814 167.218 456.407 167.218Z" fill="white"/>
<path d="M384.269 63.5973V85.7258H342.11V189.532H312.339V85.7258H270.179V63.5973H384.269Z" fill="white"/>
</svg>
