<svg width="128" height="128" viewBox="0 0 128 128" fill="none" xmlns="http://www.w3.org/2000/svg">
    <defs>
        <linearGradient id="blue_gradient" x1="0" y1="0" x2="128" y2="128" gradientUnits="userSpaceOnUse">
            <stop stop-color="#3b82f6" />
            <stop offset="1" stop-color="#1d4ed8" />
        </linearGradient>
        <filter id="shadow" x="-20" y="-20" width="168" height="168" filterUnits="userSpaceOnUse" color-interpolation-filters="sRGB">
            <feFlood flood-opacity="0" result="BackgroundImageFix"/>
            <feColorMatrix in="SourceAlpha" type="matrix" values="0 0 0 0 0 0 0 0 0 0 0 0 0 0 0 0 0 0 127 0" result="hardAlpha"/>
            <feOffset dy="4"/>
            <feGaussianBlur stdDeviation="8"/>
            <feComposite in2="hardAlpha" operator="out"/>
            <feColorMatrix type="matrix" values="0 0 0 0 0.231373 0 0 0 0 0.509804 0 0 0 0 0.964706 0 0 0 0.25 0"/>
            <feBlend mode="normal" in2="BackgroundImageFix" result="effect1_dropShadow"/>
            <feBlend mode="normal" in="SourceGraphic" in2="effect1_dropShadow" result="shape"/>
        </filter>
    </defs>
    
    <rect width="128" height="128" rx="32" fill="url(#blue_gradient)" />
    
    <g transform="translate(32, 32) scale(2.66)">
        <path d="M19 17h2c.6 0 1-.4 1-1v-3c0-.9-.7-1.7-1.5-1.9C18.7 10.6 16 10 16 10s-1.3-1.4-2.2-2.3c-.5-.4-1.1-.7-1.8-.7H5c-.6 0-1.1.4-1.4.9l-1.4 2.9A3.7 3.7 0 0 0 2 12v4c0 .6.4 1 1 1h2" stroke="white" stroke-width="2" stroke-linecap="round" stroke-linejoin="round"/>
        <circle cx="7" cy="17" r="2" stroke="white" stroke-width="2"/>
        <path d="M9 17h6" stroke="white" stroke-width="2"/>
        <circle cx="17" cy="17" r="2" stroke="white" stroke-width="2"/>
    </g>
</svg>
