<svg viewBox="0 0 50 20" xmlns="http://www.w3.org/2000/svg">
  <path d="M9.5 3.5c-.5.6-1.3 1-2.1.9-.1-.8.3-1.7.8-2.2.5-.6 1.4-1 2.1-1 .1.8-.2 1.7-.8 2.3zm.8 1.2c-1.2-.1-2.2.7-2.8.7-.6 0-1.5-.7-2.4-.6-1.2 0-2.4.7-3 1.8-1.3 2.2-.3 5.5.9 7.3.6.9 1.3 1.8 2.2 1.8.9 0 1.2-.6 2.3-.6s1.4.6 2.3.5c1 0 1.6-.9 2.2-1.8.7-1 1-2 1-2s-2-.8-2-2.8c0-1.7 1.4-2.6 1.5-2.7-.9-1.3-2.2-1.4-2.2-1.4z" fill="#000"/>
  <text x="14" y="14" font-family="-apple-system,BlinkMacSystemFont,'SF Pro Display',sans-serif" font-size="8" font-weight="600" fill="#000">Pay</text>
</svg>
