<svg xmlns="http://www.w3.org/2000/svg" viewBox="0 0 165.52107 105.96532">
  <path d="M150.698 0H14.823C6.63 0 0 6.63 0 14.823v76.32c0 8.194 6.63 14.823 14.823 14.823h135.875c8.194 0 14.823-6.63 14.823-14.823V14.823C165.52 6.63 158.892 0 150.698 0z" fill="#000"/>
  <path d="M43.508 35.77c1.404-1.755 2.356-4.112 2.105-6.52-2.054.1-4.56 1.354-6.015 3.109-1.305 1.504-2.456 3.959-2.155 6.266 2.306.2 4.61-1.105 6.065-2.856zm2.105 3.359c-3.36-.2-6.215 1.904-7.82 1.904-1.604 0-4.06-1.805-6.716-1.755-3.459.05-6.666 2.006-8.42 5.115-3.61 6.215-946 18.345-.298 25.513 1.756 2.508 3.86 5.315 6.616 5.215 2.606-.1 3.61-1.705 6.766-1.705 3.159 0 4.061 1.705 6.817 1.655 2.856-.05 4.66-2.508 6.416-5.015 1.956-2.858 2.758-5.615 2.808-5.765-.05-.05-5.464-2.108-5.515-8.273-.05-5.164 4.212-7.621 4.412-7.772-2.408-3.56-6.165-3.96-7.47-4.01z" fill="#fff"/>
  <path d="M94.088 30.555c8.22 0 13.934 5.664 13.934 13.908 0 8.269-5.813 13.982-14.107 13.982h-9.06V72.08h-6.79V30.555zm-9.233 22.099h7.52c5.713 0 8.963-3.076 8.963-8.166 0-5.09-3.25-8.141-8.938-8.141h-7.545z" fill="#fff"/>
  <path d="M110.336 64.806c0-5.14 3.924-8.266 10.888-8.666l8.018-.474v-2.252c0-3.25-2.202-5.153-5.874-5.153-3.5 0-5.664 1.677-6.188 4.327h-6.215c.35-5.79 5.29-10.066 12.627-10.066 7.42 0 12.228 3.924 12.228 10.09v21.476h-6.29v-5.115h-.15c-1.851 3.451-5.875 5.677-10.04 5.677-6.24 0-11.004-3.85-11.004-9.844zm18.906-2.977v-2.302l-7.195.449c-3.573.224-5.589 1.776-5.589 4.352 0 2.627 2.091 4.253 5.29 4.253 4.127 0 7.494-2.776 7.494-6.752z" fill="#fff"/>
  <path d="M136.647 88.56v-5.29c.474.125 1.552.125 2.077.125 2.976 0 4.577-1.252 5.564-4.478l.6-1.926-11.38-31.54h7.095l7.944 25.626h.125l7.944-25.625h6.92L151.973 79.32c-2.776 7.944-5.977 10.491-12.703 10.491-.524 0-2.15-.075-2.624-.25z" fill="#fff"/>
</svg>
