<svg xmlns="http://www.w3.org/2000/svg" viewBox="0 0 150 40">
  <path d="M71.8 19.8v9.7h-3.1V6h8.2c2 0 3.7.7 5.1 2s2 2.9 2 4.8c0 1.9-.7 3.5-2 4.8s-3.1 1.9-5.1 1.9h-5.1v.3zm0-10.9v8h5.2c1.2 0 2.2-.4 3-1.2s1.2-1.8 1.2-3-.4-2.2-1.2-3-1.8-1.2-3-1.2h-5.2v.4zm24 3.6c2.2 0 3.9.6 5.2 1.8 1.3 1.2 1.9 2.8 1.9 4.8v9.7h-2.9v-2.2h-.1c-1.2 1.8-2.9 2.7-4.9 2.7-1.7 0-3.2-.5-4.3-1.5s-1.7-2.3-1.7-3.8c0-1.6.6-2.9 1.8-3.8 1.2-.9 2.8-1.4 4.8-1.4 1.7 0 3.1.3 4.2.9v-.6c0-1-.4-1.8-1.1-2.5s-1.6-1-2.7-1c-1.5 0-2.7.6-3.6 1.9l-2.7-1.7c1.5-2.2 3.7-3.3 6.1-3.3zm-3.7 11.3c0 .8.3 1.4.9 1.9.6.5 1.3.7 2.2.7 1.2 0 2.2-.4 3.1-1.3.9-.9 1.4-1.9 1.4-3-1-.8-2.3-1.2-4-1.2-1.3 0-2.3.3-3.1.9s-1.2 1.3-1.2 2h.7zm21.7-10.7l-10.1 23.3h-3.2l3.7-8.1-6.6-15.2h3.4l4.8 11.6h.1l4.7-11.6h3.2z" fill="#5F6368"/>
  <path d="M34.3 19c0-1-.1-2-.2-2.9H17.6v5.5h9.4c-.4 2.2-1.6 4-3.4 5.3v4.4h5.5c3.2-2.9 5.1-7.2 5.1-12.3h.1z" fill="#4285F4"/>
  <path d="M17.6 35.5c4.7 0 8.7-1.6 11.6-4.2l-5.5-4.4c-1.5 1-3.5 1.6-6.1 1.6-4.7 0-8.7-3.1-10.1-7.4H1.9v4.5c2.9 5.7 8.8 9.9 15.7 9.9z" fill="#34A853"/>
  <path d="M7.5 21.1c-.4-1-.5-2.1-.5-3.1s.2-2.2.5-3.1v-4.5H1.9C.7 12.7 0 15.3 0 18s.7 5.3 1.9 7.6l5.6-4.5z" fill="#FBBC05"/>
  <path d="M17.6 7.6c2.7 0 5 .9 6.9 2.7l5.1-5.1C26.3 2.4 22.3.5 17.6.5 10.7.5 4.8 4.7 1.9 10.4l5.6 4.5c1.4-4.3 5.4-7.3 10.1-7.3z" fill="#EA4335"/>
</svg>
