<svg viewBox="0 0 60 24" xmlns="http://www.w3.org/2000/svg">
  <path d="M27.7 11.9c0 3.6-2.8 6.1-6.2 6.1s-6.2-2.6-6.2-6.1 2.8-6.1 6.2-6.1 6.2 2.5 6.2 6.1zm-2.7 0c0-2.3-1.7-3.8-3.5-3.8s-3.5 1.5-3.5 3.8 1.7 3.8 3.5 3.8 3.5-1.6 3.5-3.8z" fill="#EA4335"/>
  <path d="M40.4 11.9c0 3.6-2.8 6.1-6.2 6.1s-6.2-2.6-6.2-6.1 2.8-6.1 6.2-6.1 6.2 2.5 6.2 6.1zm-2.7 0c0-2.3-1.7-3.8-3.5-3.8s-3.5 1.5-3.5 3.8 1.7 3.8 3.5 3.8 3.5-1.6 3.5-3.8z" fill="#FBBC05"/>
  <path d="M52.6 6.1v11.3c0 4.7-2.8 6.6-6 6.6-3.1 0-4.9-2-5.6-3.7l2.4-1c.4 1 1.5 2.1 3.1 2.1 2 0 3.3-1.3 3.3-3.6v-.9h-.1c-.6.7-1.7 1.4-3.1 1.4-3 0-5.7-2.6-5.7-5.9 0-3.4 2.7-6.1 5.7-6.1 1.4 0 2.6.6 3.1 1.4h.1V6.1h2.8zm-2.6 5.8c0-2.1-1.4-3.7-3.2-3.7-1.8 0-3.4 1.6-3.4 3.7 0 2 1.5 3.7 3.4 3.7 1.8 0 3.2-1.6 3.2-3.7z" fill="#4285F4"/>
  <path d="M57.1 1.6v16.1h-2.7V1.6h2.7z" fill="#34A853"/>
  <path d="M9.7 10.5v2.7H4.9c.1 1.2.6 2.1 1.2 2.8.7.6 1.7 1 2.9 1 1.7 0 3-.6 4-1.7l1.7 1.7c-1.4 1.5-3.3 2.4-5.7 2.4-4.3 0-7.3-2.9-7.3-7.1 0-4 2.8-6.9 6.8-6.9 3.8 0 6.2 2.5 6.2 6.1zm-2.7-.5c0-1.8-1.3-3.1-3.2-3.1-1.8 0-3 1.2-3.3 3.1h6.5z" fill="#4285F4"/>
  <text x="0" y="0" visibility="hidden">G Pay</text>
</svg>
