<svg viewBox="0 0 101 128" xmlns="http://www.w3.org/2000/svg">
  <path fill="#003087" d="M12.237 0h34.785c9.5 0 15.865 4.756 14.96 14.556-.905 9.8-7.27 15.556-16.77 15.556H37.66L33.73 51.667H19.975L12.237 0z"/>
  <path fill="#009CDE" d="M35.79 0h32.738c4.747 0 10.16 1.578 12.617 5.3 2.456 3.72 2.27 9.12.907 13.688-2.27 7.84-8.18 14.478-16.677 16.244H50.59l-3.932 21.11H32.904L35.79 0z"/>
  <path fill="#012169" d="M62.525 34.8H77.28l-9.05 48.422H54.475L62.525 34.8z"/>
  <path fill="#003087" d="M19.975 51.667H33.73L22.68 113H8.925l11.05-61.333z"/>
</svg>
