<svg xmlns="http://www.w3.org/2000/svg" viewBox="0 0 124.611 33.069">
  <path fill="#009cde" d="M46.455 0H16.8C14.74 0 12.98 1.5 12.64 3.54L.02 83.33c-.25 1.56.96 2.97 2.54 2.97h13.55c2.06 0 3.82-1.5 4.16-3.54l3.63-23.02c.34-2.04 2.1-3.54 4.16-3.54h9.29c19.35 0 30.52-9.37 33.45-27.93 1.32-8.12.05-14.5-3.77-18.97C63.01 5.5 55.83 0 46.455 0z"/>
  <path fill="#012169" d="M49.778 27.638c-1.6 10.5-9.636 10.5-17.41 10.5h-4.42l3.1-19.64a2.5 2.5 0 012.47-2.11h2.03c5.29 0 10.29 0 12.86 3.02 1.54 1.81 2.01 4.5 1.37 8.23z"/>
</svg>
