<svg xmlns="http://www.w3.org/2000/svg" viewBox="0 0 1000 324.68">
<path d="M651.19 0L498.8 324.68h-100.87l-75.07-258.96c-4.56-17.87-8.52-24.44-22.38-31.98C276.07 19.96 233.5 8.72 186.28 1.96L188.42 0h162.05c20.65 0 39.24 13.74 43.93 37.56l40.13 213.26L533.44 0zm99.28 0l-80.87 324.68H574.87L655.74 0zm282.32 218.59c.33-99.89-138.12-105.37-137.19-149.93.29-13.55 13.24-27.99 41.54-31.67 14.02-1.83 52.7-3.23 96.6 16.93l17.2-80.34C1023.15 58.9 975.48 0 897.49 0c-72.47 0-122.28 38.54-122.69 93.77-.43 40.83 36.41 63.6 64.17 77.15 28.57 13.87 38.13 22.78 38.01 35.17-.2 18.97-22.79 27.36-43.87 27.71-36.85.6-58.24-9.97-75.3-17.92l-13.3 62.01c17.16 7.87 48.82 14.74 81.66 15.08 77.13 0 127.6-38.1 127.88-97.38zM1000 324.68h-72.26L875.37 0h66.48z" fill="#1A1F71"/>
</svg>
